<svg xmlns="http://www.w3.org/2000/svg" xmlns:xlink="http://www.w3.org/1999/xlink" viewBox="0 0 1052 768"><defs><style>.cls-1{fill:none;}.cls-2{isolation:isolate;}.cls-3{fill:url(#linear-gradient);}.cls-4{opacity:0.3;}.cls-4,.cls-7,.cls-8{mix-blend-mode:soft-light;}.cls-5{fill:#fff;}.cls-6{clip-path:url(#clip-path);}.cls-7{fill:#f7f8f9;opacity:0.2;}.cls-8{fill:#050505;opacity:0.31;}</style><linearGradient id="linear-gradient" y1="384" x2="1052" y2="384" gradientUnits="userSpaceOnUse"><stop offset="0" stop-color="#ee3d57"/><stop offset="1" stop-color="#f05c45"/></linearGradient><clipPath id="clip-path"><path class="cls-1" d="M1052,0H10A249.69,249.69,0,0,0,1.24,94.14C2.9,110.31,5.59,134.45,19,160.59c0,0,14.94,29.52,43,51.06C141.66,272.9,233.09,270,335,285.93c130.7,20.4,201.6,31.46,260.36,95.94,71.09,78,106.16,160.93,106.16,160.93,8.53,20.16,12.69,33.63,25.28,55.71,30.4,53.3,67.05,81.5,98.58,105.22,37.87,28.5,65.19,49.05,106.16,58.8,51.72,12.3,100.09,1.42,120.49-8.86Z"/></clipPath></defs><title>d@2xd</title><g class="cls-2"><g id="Layer_2" data-name="Layer 2"><g id="Layer_1-2" data-name="Layer 1"><path class="cls-3" d="M1052,0H10A249.69,249.69,0,0,0,1.24,94.14C2.9,110.31,5.59,134.45,19,160.59c0,0,14.94,29.52,43,51.06C141.66,272.9,233.09,270,335,285.93c130.7,20.4,201.6,31.46,260.36,95.94,71.09,78,106.16,160.93,106.16,160.93,8.53,20.16,12.69,33.63,25.28,55.71,30.4,53.3,67.05,81.5,98.58,105.22,37.87,28.5,65.19,49.05,106.16,58.8,51.72,12.3,100.09,1.42,120.49-8.86Z"/><g class="cls-4"><path class="cls-5" d="M916.5,169.44a61.94,61.94,0,1,1,61.94-61.94A62,62,0,0,1,916.5,169.44Z"/><path d="M916.5,60.11a47.39,47.39,0,1,1-47.39,47.39A47.44,47.44,0,0,1,916.5,60.11m0-29.11A76.5,76.5,0,1,0,993,107.5,76.5,76.5,0,0,0,916.5,31Z"/></g><g class="cls-6"><path class="cls-7" d="M1052,0H928.35A.88.88,0,0,1,928,0H815.94C776,10.57,735,22.95,712,28.86,563.07,67.11,406.42,28.65,287,0H90.13A234.91,234.91,0,0,0,42,119C36.12,172,46.22,237.12,74,277.48c58.89,85.57,179.38,28.19,230-9,47-34.56,56.57-58.07,98-72.33,56.54-19.46,75.74,12.6,134,18.08,104.37,9.83,112.65-86.46,200-67.81,49.46,10.56,46.24,41.31,148,113,106.34,74.93,148.36,91.58,168,86.86Z"/></g><path class="cls-8" d="M240.79,2A55.3,55.3,0,0,1,130.21,2H98.83A86.68,86.68,0,0,0,272.17,2Z"/><path class="cls-8" d="M1052,642.13a55.3,55.3,0,0,1,0-110.58V500.17a86.68,86.68,0,0,0,0,173.35Z"/></g></g></g></svg>