<svg xmlns="http://www.w3.org/2000/svg" xmlns:xlink="http://www.w3.org/1999/xlink" viewBox="0 0 436.04 663.03"><defs><style>.cls-1{fill:none;}.cls-2{fill:url(#linear-gradient);}.cls-3{fill:url(#linear-gradient-2);}.cls-4{fill:url(#linear-gradient-3);}.cls-5{clip-path:url(#clip-path);}.cls-6{fill:#f2e9e9;}.cls-7{fill:url(#linear-gradient-4);}.cls-8{fill:url(#linear-gradient-5);}.cls-9{fill:url(#linear-gradient-6);}.cls-10{fill:url(#linear-gradient-7);}.cls-11{fill:url(#linear-gradient-8);}.cls-12{fill:url(#linear-gradient-9);}.cls-13{fill:url(#linear-gradient-10);}.cls-14{fill:url(#linear-gradient-11);}.cls-15{fill:url(#linear-gradient-12);}.cls-16{fill:url(#linear-gradient-13);}.cls-17{fill:url(#linear-gradient-14);}.cls-18{fill:url(#linear-gradient-15);}.cls-19{fill:url(#linear-gradient-16);}.cls-20{fill:url(#linear-gradient-17);}.cls-21{fill:#4b4f60;}</style><linearGradient id="linear-gradient" x1="417.47" y1="231.52" x2="435.94" y2="231.52" gradientUnits="userSpaceOnUse"><stop offset="0" stop-color="#27282d"/><stop offset="1" stop-color="#404249"/></linearGradient><linearGradient id="linear-gradient-2" x1="0" y1="311.74" x2="18.47" y2="311.74" xlink:href="#linear-gradient"/><linearGradient id="linear-gradient-3" x1="33.53" y1="680.16" x2="412.86" y2="23.15" xlink:href="#linear-gradient"/><clipPath id="clip-path"><path class="cls-1" d="M56.91,54.37H379.26A40.76,40.76,0,0,1,420,95.13V663a0,0,0,0,1,0,0H14.89a0,0,0,0,1,0,0V96.4A42,42,0,0,1,56.91,54.37Z"/></clipPath><linearGradient id="linear-gradient-4" x1="162.49" y1="606" x2="273.51" y2="606" gradientUnits="userSpaceOnUse"><stop offset="0" stop-color="#222733"/><stop offset="0.54" stop-color="#353a47"/><stop offset="0.62" stop-color="#373c49"/><stop offset="1" stop-color="#404451"/></linearGradient><linearGradient id="linear-gradient-5" x1="169.34" y1="321.03" x2="176.53" y2="321.03" gradientTransform="matrix(2.08, 0, 0, 1.81, -174.56, -135.95)" xlink:href="#linear-gradient-4"/><linearGradient id="linear-gradient-6" x1="154.96" y1="299.32" x2="158.54" y2="299.32" gradientTransform="matrix(2.08, 0, 0, 1.81, -174.56, -135.95)" xlink:href="#linear-gradient-4"/><linearGradient id="linear-gradient-7" x1="201.71" y1="210.1" x2="223.3" y2="210.1" gradientTransform="matrix(2.08, 0, 0, 1.81, -174.56, -135.95)" xlink:href="#linear-gradient-4"/><linearGradient id="linear-gradient-8" x1="180.13" y1="321.03" x2="187.33" y2="321.03" gradientTransform="matrix(2.08, 0, 0, 1.81, -174.56, -135.95)" xlink:href="#linear-gradient-4"/><linearGradient id="linear-gradient-9" x1="154.96" y1="316.2" x2="165.74" y2="316.2" gradientTransform="matrix(2.08, 0, 0, 1.81, -174.56, -135.95)" xlink:href="#linear-gradient-4"/><linearGradient id="linear-gradient-10" x1="154.96" y1="229.39" x2="223.3" y2="229.39" gradientTransform="matrix(2.08, 0, 0, 1.81, -174.56, -135.95)" xlink:href="#linear-gradient-4"/><linearGradient id="linear-gradient-11" x1="154.96" y1="284.85" x2="158.54" y2="284.85" gradientTransform="matrix(2.08, 0, 0, 1.81, -174.56, -135.95)" xlink:href="#linear-gradient-4"/><linearGradient id="linear-gradient-12" x1="219.7" y1="299.32" x2="223.3" y2="299.32" gradientTransform="matrix(2.08, 0, 0, 1.81, -174.56, -135.95)" xlink:href="#linear-gradient-4"/><linearGradient id="linear-gradient-13" x1="219.7" y1="284.85" x2="223.3" y2="284.85" gradientTransform="matrix(2.08, 0, 0, 1.81, -174.56, -135.95)" xlink:href="#linear-gradient-4"/><linearGradient id="linear-gradient-14" x1="147.76" y1="272.79" x2="230.48" y2="272.79" gradientTransform="matrix(2.08, 0, 0, 1.81, -174.56, -135.95)" xlink:href="#linear-gradient-4"/><linearGradient id="linear-gradient-15" x1="212.5" y1="316.2" x2="223.3" y2="316.2" gradientTransform="matrix(2.08, 0, 0, 1.81, -174.56, -135.95)" xlink:href="#linear-gradient-4"/><linearGradient id="linear-gradient-16" x1="190.93" y1="321.03" x2="198.12" y2="321.03" gradientTransform="matrix(2.08, 0, 0, 1.81, -174.56, -135.95)" xlink:href="#linear-gradient-4"/><linearGradient id="linear-gradient-17" x1="201.71" y1="321.03" x2="208.92" y2="321.03" gradientTransform="matrix(2.08, 0, 0, 1.81, -174.56, -135.95)" xlink:href="#linear-gradient-4"/></defs><title>desk5@2xd</title><g id="Layer_2" data-name="Layer 2"><g id="Layer_1-2" data-name="Layer 1"><rect class="cls-2" x="417.47" y="184.57" width="18.47" height="93.9"/><rect class="cls-3" y="264.79" width="18.47" height="93.9"/><path class="cls-4" d="M83,0H350.91a81.48,81.48,0,0,1,81.48,81.48V663a0,0,0,0,1,0,0H3.8a0,0,0,0,1,0,0V79.22A79.22,79.22,0,0,1,83,0Z"/><g class="cls-5"><rect class="cls-6" x="0.99" y="9.72" width="435" height="653.28"/><path class="cls-7" d="M218,595.25a16.13,16.13,0,1,0,16.65,16.12A16.39,16.39,0,0,0,218,595.25Zm44.41-16.12H249.09a4.92,4.92,0,0,1-4.38-3.06l-3.45-10a4.93,4.93,0,0,0-4.38-3.06H199.13a4.92,4.92,0,0,0-4.38,3.06l-3.45,10a4.93,4.93,0,0,1-4.38,3.06H173.6a11,11,0,0,0-11.1,10.75v48.37A11,11,0,0,0,173.59,649H262.4a11,11,0,0,0,11.1-10.75V589.89a11,11,0,0,0-11.1-10.75ZM218,638.25c-15.33,0-27.75-12-27.75-26.87S202.67,584.5,218,584.51s27.75,12,27.75,26.87S233.32,638.25,218,638.25Zm40.52-40.84a3.76,3.76,0,1,1,3.89-3.76,3.83,3.83,0,0,1-3.89,3.76Zm0,0"/><rect class="cls-8" x="176.93" y="439.34" width="14.92" height="8.72"/><rect class="cls-9" x="147.07" y="395.79" width="7.44" height="17.39"/><path class="cls-10" d="M251.64,273.92H289l-44.81-61V265.2c0,5.22,3.71,8.72,7.48,8.72Zm0,0"/><rect class="cls-11" x="199.32" y="439.34" width="14.95" height="8.72"/><path class="cls-12" d="M154.5,430.61V421.9h-7.43v8.72c0,9.57,6.7,17.44,14.91,17.44h7.48v-8.72H162c-3.72,0-7.48-3.49-7.48-8.72Zm0,0"/><path class="cls-13" d="M289,282.59H251.64c-8.21,0-15-7.82-15-17.38V212.94H162c-8.21,0-14.91,7.82-14.91,17.43l0,113.17,141.89,0Zm0,0"/><rect class="cls-14" x="147.08" y="369.64" width="7.44" height="17.44"/><rect class="cls-15" x="281.48" y="395.81" width="7.48" height="17.39"/><rect class="cls-16" x="281.49" y="369.66" width="7.48" height="17.44"/><path class="cls-17" d="M296.45,334.84v17.44l-156.84,0V334.82h-7.48v43.54h7.48V361l156.84,0v17.38h7.43V334.84Zm0,0"/><path class="cls-18" d="M281.48,430.63c0,5.22-3,8.72-7.48,8.72h-7.48v8.72H274c8.21,0,15-7.87,15-17.43v-8.72h-7.48Zm0,0"/><rect class="cls-19" x="221.75" y="439.34" width="14.92" height="8.72"/><rect class="cls-20" x="244.14" y="439.35" width="14.95" height="8.72"/></g><circle class="cls-21" cx="333.73" cy="27.56" r="11.24"/><rect class="cls-21" x="138.08" y="22.24" width="146.39" height="10.64" rx="2.88" ry="2.88"/></g></g></svg>