<svg xmlns="http://www.w3.org/2000/svg" xmlns:xlink="http://www.w3.org/1999/xlink" viewBox="0 0 174.69 61.99"><defs><style>.cls-1{fill:url(#linear-gradient);}.cls-2{fill:url(#linear-gradient-2);}.cls-3{fill:url(#linear-gradient-3);}.cls-4{fill:url(#linear-gradient-4);}.cls-5{fill:url(#linear-gradient-5);}.cls-6{fill:url(#linear-gradient-6);}</style><linearGradient id="linear-gradient" y1="31" x2="45.94" y2="31" gradientUnits="userSpaceOnUse"><stop offset="0" stop-color="#ee3d57"/><stop offset="1" stop-color="#f05c45"/></linearGradient><linearGradient id="linear-gradient-2" x1="139.1" y1="32.24" x2="174.69" y2="32.24" xlink:href="#linear-gradient"/><linearGradient id="linear-gradient-3" x1="125.89" y1="31.43" x2="142.87" y2="31.43" xlink:href="#linear-gradient"/><linearGradient id="linear-gradient-4" x1="139.1" y1="8.58" x2="174.12" y2="8.58" xlink:href="#linear-gradient"/><linearGradient id="linear-gradient-5" x1="64.12" y1="29.8" x2="108.45" y2="29.8" xlink:href="#linear-gradient"/><linearGradient id="linear-gradient-6" x1="63.72" y1="31.03" x2="76.06" y2="31.03" xlink:href="#linear-gradient"/></defs><title>Asset 9@2xd</title><g id="Layer_2" data-name="Layer 2"><g id="Layer_1-2" data-name="Layer 1"><path class="cls-1" d="M45.94,23A23,23,0,0,1,10.53,42.41V61.7a.29.29,0,0,1-.29.29A10.25,10.25,0,0,1,0,51.74V23.52a.29.29,0,0,1,.29-.29H5.62a4.91,4.91,0,0,1,4.84,4.07A13.18,13.18,0,1,0,22.93,9.83H10.12A9.84,9.84,0,0,1,.28,0H22.93A23,23,0,0,1,45.94,23Z"/><path class="cls-2" d="M148.38,26.93c-5.13,0-9.28,4.76-9.28,10.63H165.4c5.13,0,9.28-4.76,9.28-10.63Z"/><path class="cls-3" d="M137.05,14.69v-3c.3-4.19,2.65-7.67,5.82-9h-6.13v.09c-6,.2-10.85,6.2-10.85,13.57V60.14c6.16,0,11.16-6.08,11.16-13.58V14.78h.15A.17.17,0,0,1,137.05,14.69Z"/><path class="cls-4" d="M174.12,7.08V3.28H149.94a10.72,10.72,0,0,0-10.84,10.6h28.08A6.87,6.87,0,0,0,174.12,7.08Z"/><path class="cls-5" d="M79,.35H77.77v0H64.12A12.65,12.65,0,0,0,76.76,13h1v0H79a16.87,16.87,0,1,1,0,33.75c-.3,0-.6,0-.89,0v0H75.22A11.07,11.07,0,0,0,64.15,57.74v1.54H78.26v0H79A29.45,29.45,0,0,0,79,.35Z"/><path class="cls-6" d="M75.23,42.38h.83V25.13c0-5.93-5.53-10.73-12.34-10.73V47.67A14.58,14.58,0,0,1,75.23,42.38Z"/></g></g></svg>