<svg xmlns="http://www.w3.org/2000/svg" xmlns:xlink="http://www.w3.org/1999/xlink" viewBox="0 0 234.83 502.85"><defs><style>.cls-1{mask:url(#mask);filter:url(#luminosity-noclip-3);}.cls-2,.cls-4{mix-blend-mode:multiply;}.cls-2{fill:url(#linear-gradient);}.cls-3{mask:url(#mask-2);filter:url(#luminosity-noclip-4);}.cls-4{fill:url(#linear-gradient-2);}.cls-5{fill:none;}.cls-6{clip-path:url(#clip-path);}.cls-7{fill:#060808;}.cls-8{fill:#767676;}.cls-9{fill:#0b0e0e;}.cls-10{clip-path:url(#clip-path-2);}.cls-11{fill:url(#linear-gradient-3);}.cls-12{fill:#181a1c;}.cls-13{fill:#3a3c3b;}.cls-14{fill:url(#linear-gradient-4);}.cls-15{fill:url(#linear-gradient-5);}.cls-16{fill:url(#linear-gradient-6);}.cls-17{fill:url(#linear-gradient-7);}.cls-18{fill:url(#linear-gradient-8);}.cls-19{fill:url(#linear-gradient-9);}.cls-20{fill:#121215;}.cls-21{fill:#161b45;}.cls-22{fill:#4f6591;}.cls-23{fill:#35426b;}.cls-24{fill:#151415;}.cls-25{fill:#292a2f;}.cls-26{fill:#101417;}.cls-27{fill:#164272;}.cls-28{fill:#1f60ab;}.cls-29{fill:#879fb7;}.cls-30{fill:#a6b2c8;}.cls-31{fill:#ededee;}.cls-32{fill:#292a2b;}.cls-33{fill:#040608;}.cls-34{fill:#858586;}.cls-35{fill:#616363;}.cls-36{fill:#232424;}.cls-37{fill:#191b1f;}.cls-38{fill:#404141;}.cls-39{fill:#c2c1c2;}.cls-40{mask:url(#mask-3);}.cls-41,.cls-43{opacity:0.8;}.cls-41{fill:url(#linear-gradient-10);}.cls-42{mask:url(#mask-4);}.cls-43{fill:url(#linear-gradient-11);}.cls-44{filter:url(#luminosity-noclip-2);}.cls-45{filter:url(#luminosity-noclip);}</style><filter id="luminosity-noclip" x="6.94" y="-8457.92" width="23.86" height="32766" filterUnits="userSpaceOnUse" color-interpolation-filters="sRGB"><feFlood flood-color="#fff" result="bg"/><feBlend in="SourceGraphic" in2="bg"/></filter><mask id="mask" x="6.94" y="-8457.92" width="23.86" height="32766" maskUnits="userSpaceOnUse"><g class="cls-45"/></mask><linearGradient id="linear-gradient" x1="6.94" y1="251.42" x2="30.8" y2="251.42" gradientUnits="userSpaceOnUse"><stop offset="0" stop-color="#fff"/><stop offset="0.55"/></linearGradient><filter id="luminosity-noclip-2" x="204.29" y="-8457.92" width="23.86" height="32766" filterUnits="userSpaceOnUse" color-interpolation-filters="sRGB"><feFlood flood-color="#fff" result="bg"/><feBlend in="SourceGraphic" in2="bg"/></filter><mask id="mask-2" x="204.29" y="-8457.92" width="23.86" height="32766" maskUnits="userSpaceOnUse"><g class="cls-44"/></mask><linearGradient id="linear-gradient-2" x1="-79.39" y1="251.42" x2="-55.53" y2="251.42" gradientTransform="matrix(-1, 0, 0, 1, 148.76, 0)" xlink:href="#linear-gradient"/><clipPath id="clip-path"><rect class="cls-5" width="239.1" height="358.92"/></clipPath><clipPath id="clip-path-2"><rect class="cls-5" x="8.75" y="26.9" width="218.83" height="452.15" rx="17.4" ry="17.4"/></clipPath><linearGradient id="linear-gradient-3" x1="118.34" y1="19.17" x2="118.34" y2="13.09" gradientUnits="userSpaceOnUse"><stop offset="0" stop-color="#060808"/><stop offset="0.55" stop-color="#292a2b"/><stop offset="1" stop-color="#060808"/></linearGradient><linearGradient id="linear-gradient-4" x1="-221.31" y1="612.29" x2="-151.43" y2="612.29" gradientTransform="translate(-610.55 -66.57) rotate(-90)" gradientUnits="userSpaceOnUse"><stop offset="0" stop-color="#292a29"/><stop offset="0.05" stop-color="#676968"/><stop offset="0.06" stop-color="#4d4e4e"/><stop offset="0.93" stop-color="#4d4e4e"/><stop offset="0.97" stop-color="#676968"/><stop offset="1" stop-color="#292a29"/></linearGradient><linearGradient id="linear-gradient-5" x1="-221.29" y1="610.99" x2="-151.42" y2="610.99" gradientTransform="translate(-610.55 -66.57) rotate(-90)" gradientUnits="userSpaceOnUse"><stop offset="0" stop-color="#aeaeae"/><stop offset="0.04" stop-color="#252626"/><stop offset="0.07" stop-color="#80858f"/><stop offset="0.09" stop-color="#a0a0a1"/><stop offset="0.52" stop-color="#a3a4a4"/><stop offset="0.92" stop-color="#a3a4a4"/><stop offset="0.94" stop-color="#80858f"/><stop offset="0.96" stop-color="#252626"/><stop offset="1" stop-color="#aeaeae"/></linearGradient><linearGradient id="linear-gradient-6" x1="-165.83" y1="1452.94" x2="-132.48" y2="1452.94" gradientTransform="translate(1686.03 321.97) rotate(90)" xlink:href="#linear-gradient-4"/><linearGradient id="linear-gradient-7" x1="-165.81" y1="1451.64" x2="-132.48" y2="1451.64" gradientTransform="translate(1686.03 321.97) rotate(90)" xlink:href="#linear-gradient-5"/><linearGradient id="linear-gradient-8" x1="-283.75" y1="612.59" x2="-250.87" y2="612.59" xlink:href="#linear-gradient-4"/><linearGradient id="linear-gradient-9" x1="-283.74" y1="611.86" x2="-250.87" y2="611.86" xlink:href="#linear-gradient-5"/><filter id="luminosity-noclip-3" x="6.94" y="8.71" width="23.86" height="485.43" filterUnits="userSpaceOnUse" color-interpolation-filters="sRGB"><feFlood flood-color="#fff" result="bg"/><feBlend in="SourceGraphic" in2="bg"/></filter><mask id="mask-3" x="6.94" y="8.71" width="23.86" height="485.43" maskUnits="userSpaceOnUse"><g class="cls-1"><path class="cls-2" d="M13.4,476.74V26.11A17.4,17.4,0,0,1,30.8,8.71H24.34a17.4,17.4,0,0,0-17.4,17.4V476.74a17.4,17.4,0,0,0,17.4,17.4H30.8A17.4,17.4,0,0,1,13.4,476.74Z"/></g></mask><linearGradient id="linear-gradient-10" x1="6.94" y1="251.42" x2="30.8" y2="251.42" gradientUnits="userSpaceOnUse"><stop offset="0" stop-color="#fff"/><stop offset="0.55" stop-color="#fff"/></linearGradient><filter id="luminosity-noclip-4" x="204.29" y="8.71" width="23.86" height="485.43" filterUnits="userSpaceOnUse" color-interpolation-filters="sRGB"><feFlood flood-color="#fff" result="bg"/><feBlend in="SourceGraphic" in2="bg"/></filter><mask id="mask-4" x="204.29" y="8.71" width="23.86" height="485.43" maskUnits="userSpaceOnUse"><g class="cls-3"><path class="cls-4" d="M221.69,476.74V26.11a17.4,17.4,0,0,0-17.4-17.4h6.46a17.4,17.4,0,0,1,17.4,17.4V476.74a17.4,17.4,0,0,1-17.4,17.4h-6.46A17.4,17.4,0,0,0,221.69,476.74Z"/></g></mask><linearGradient id="linear-gradient-11" x1="-79.39" y1="251.42" x2="-55.53" y2="251.42" gradientTransform="matrix(-1, 0, 0, 1, 148.76, 0)" xlink:href="#linear-gradient-10"/></defs><title>Asset 2@2xd</title><g id="Layer_2" data-name="Layer 2"><g id="Layer_1-2" data-name="Layer 1"><g class="cls-6"><rect class="cls-7" x="2.55" width="229.69" height="502.85" rx="29.58" ry="29.58"/><path class="cls-8" d="M30.46,2.61H203.66a30.16,30.16,0,0,1,23,10.6,29.53,29.53,0,0,0-24-12.34H32.12A29.47,29.47,0,0,0,11.52,9.24,30.2,30.2,0,0,1,30.46,2.61Z"/><path class="cls-8" d="M204.29,500.24H31.1a30.16,30.16,0,0,1-23-10.6,29.53,29.53,0,0,0,24,12.34H202.63a29.47,29.47,0,0,0,20.61-8.37A30.2,30.2,0,0,1,204.29,500.24Z"/><rect class="cls-9" x="2.55" y="4.35" width="229.69" height="494.15" rx="29.58" ry="29.58"/><g class="cls-10"><image width="1079" height="1698" transform="translate(8.83 26.9) scale(0.2 0.2)" xlink:href="Screenshot_1517353139.png"/></g><path class="cls-11" d="M134.44,16.13a3,3,0,0,1-3,3H105.29a3,3,0,0,1-3-3h0a3,3,0,0,1,3-3H131.4a3,3,0,0,1,3,3Z"/><path class="cls-12" d="M75.45,15.45a3.27,3.27,0,0,1-3.26,3.26h0a3.27,3.27,0,0,1-3.26-3.26h0a3.26,3.26,0,0,1,3.26-3.26h0a3.26,3.26,0,0,1,3.26,3.26Z"/><path class="cls-12" d="M42.47,15.45a3.26,3.26,0,0,1-3.26,3.26h0a3.26,3.26,0,0,1-3.26-3.26h0a3.26,3.26,0,0,1,3.26-3.26h0a3.26,3.26,0,0,1,3.26,3.26Z"/><path class="cls-12" d="M85.81,15.45a3.26,3.26,0,0,1-3.26,3.26h0a3.26,3.26,0,0,1-3.26-3.26h0a3.26,3.26,0,0,1,3.26-3.26h0a3.26,3.26,0,0,1,3.26,3.26Z"/><circle class="cls-13" cx="104.49" cy="16.13" r="0.66"/><circle class="cls-13" cx="107.01" cy="16.13" r="0.66"/><circle class="cls-13" cx="109.53" cy="16.13" r="0.66"/><circle class="cls-13" cx="112.05" cy="16.13" r="0.66"/><circle class="cls-13" cx="114.57" cy="16.13" r="0.66"/><circle class="cls-13" cx="117.08" cy="16.13" r="0.66"/><circle class="cls-13" cx="119.6" cy="16.13" r="0.66"/><circle class="cls-13" cx="122.12" cy="16.13" r="0.66"/><circle class="cls-13" cx="124.64" cy="16.13" r="0.66"/><circle class="cls-13" cx="127.16" cy="16.13" r="0.66"/><circle class="cls-13" cx="129.68" cy="16.13" r="0.66"/><circle class="cls-13" cx="132.2" cy="16.13" r="0.66"/><rect class="cls-14" x="0.87" y="84.85" width="1.74" height="69.88"/><polygon class="cls-15" points="0.87 84.85 0.87 154.71 0 153.65 0 85.91 0.87 84.85"/><rect class="cls-16" x="232.22" y="156.14" width="1.74" height="33.34"/><polygon class="cls-17" points="233.96 189.49 233.96 156.17 234.83 157.22 234.83 188.43 233.96 189.49"/><rect class="cls-18" x="1.55" y="184.3" width="0.97" height="32.88"/><polygon class="cls-19" points="1.55 184.3 1.55 217.16 1.06 216.57 1.06 184.89 1.55 184.3"/><circle class="cls-20" cx="54.48" cy="15.8" r="5.48"/><circle class="cls-21" cx="54.48" cy="15.8" r="4.8"/><circle class="cls-22" cx="58.13" cy="17.12" r="0.65"/><circle class="cls-22" cx="57.36" cy="18.27" r="0.43"/><circle class="cls-22" cx="56.41" cy="19.35" r="0.43"/><circle class="cls-23" cx="55.39" cy="12.31" r="0.4"/><circle class="cls-24" cx="182.47" cy="15.51" r="4.24"/><circle class="cls-25" cx="182.47" cy="15.51" r="3.21"/><circle class="cls-26" cx="182.47" cy="15.51" r="2.19"/><ellipse class="cls-27" cx="184.07" cy="16.79" rx="1.35" ry="0.94" transform="translate(35.56 126.83) rotate(-41.75)"/><ellipse class="cls-27" cx="184.07" cy="16.79" rx="1.05" ry="0.73" transform="translate(35.45 126.68) rotate(-41.69)"/><ellipse class="cls-28" cx="184.04" cy="17.23" rx="0.6" ry="0.42" transform="translate(35.27 126.93) rotate(-41.75)"/><circle class="cls-29" cx="181.73" cy="14.35" r="0.67"/><circle class="cls-30" cx="180.98" cy="15.56" r="0.47"/><circle class="cls-31" cx="181.1" cy="14.9" r="0.34"/><circle class="cls-32" cx="162.03" cy="15.51" r="5.65"/><circle class="cls-33" cx="162.03" cy="15.51" r="3.66"/><circle class="cls-34" cx="161.22" cy="14.8" r="0.52"/><circle class="cls-35" cx="163.87" cy="17.03" r="0.43"/><ellipse class="cls-36" cx="160.37" cy="13.67" rx="1.39" ry="0.97" transform="translate(31.62 110.25) rotate(-41.75)"/><ellipse class="cls-37" cx="160.37" cy="13.67" rx="1.08" ry="0.75" transform="translate(31.53 110.14) rotate(-41.7)"/><ellipse class="cls-38" cx="160.34" cy="14.12" rx="0.62" ry="0.43" transform="translate(31.42 110.5) rotate(-41.81)"/><circle class="cls-39" cx="160.83" cy="14.64" r="0.37"/><g class="cls-40"><path class="cls-41" d="M13.4,476.74V26.11A17.4,17.4,0,0,1,30.8,8.71H24.34a17.4,17.4,0,0,0-17.4,17.4V476.74a17.4,17.4,0,0,0,17.4,17.4H30.8A17.4,17.4,0,0,1,13.4,476.74Z"/></g><g class="cls-42"><path class="cls-43" d="M221.69,476.74V26.11a17.4,17.4,0,0,0-17.4-17.4h6.46a17.4,17.4,0,0,1,17.4,17.4V476.74a17.4,17.4,0,0,1-17.4,17.4h-6.46A17.4,17.4,0,0,0,221.69,476.74Z"/></g></g></g></g></svg>